<svg width="186" height="186" viewBox="0 0 186 186" fill="none" xmlns="http://www.w3.org/2000/svg">
<path id="Vector" d="M92.75 0C117.349 0 140.94 9.77185 158.334 27.1658C175.728 44.5598 185.5 68.1512 185.5 92.75C185.5 117.349 175.728 140.94 158.334 158.334C140.94 175.728 117.349 185.5 92.75 185.5C68.1512 185.5 44.5598 175.728 27.1658 158.334C9.77185 140.94 0 117.349 0 92.75C0 68.1512 9.77185 44.5598 27.1658 27.1658C44.5598 9.77185 68.1512 0 92.75 0ZM81.196 111.048L60.5923 90.4312C59.8536 89.6926 58.9767 89.1067 58.0117 88.7069C57.0466 88.3072 56.0122 88.1014 54.9676 88.1014C53.923 88.1014 52.8887 88.3072 51.9236 88.7069C50.9585 89.1067 50.0816 89.6926 49.343 90.4312C47.8513 91.923 47.0132 93.9462 47.0132 96.0559C47.0132 98.1655 47.8513 100.189 49.343 101.68L75.578 127.916C76.3145 128.658 77.1907 129.247 78.1561 129.649C79.1215 130.051 80.1569 130.258 81.2026 130.258C82.2484 130.258 83.2838 130.051 84.2492 129.649C85.2145 129.247 86.0907 128.658 86.8272 127.916L141.152 73.5772C141.901 72.8417 142.496 71.9652 142.904 70.9983C143.312 70.0315 143.525 68.9934 143.53 67.944C143.535 66.8945 143.332 65.8545 142.933 64.8839C142.534 63.9133 141.946 63.0313 141.205 62.2888C140.463 61.5463 139.582 60.958 138.612 60.5578C137.642 60.1576 136.602 59.9534 135.552 59.957C134.503 59.9607 133.465 60.1721 132.497 60.579C131.53 60.9859 130.653 61.5804 129.916 62.328L81.196 111.048Z" fill="#8AD357"/>
</svg>
