<svg width="24" height="24" viewBox="0 0 24 24" fill="none" xmlns="http://www.w3.org/2000/svg">
<g id="Group 4">
<rect id="Rectangle 121" width="24" height="24" rx="6" fill="#FF80B4"/>
<path id="Vector" d="M8.30754 6.09231C8.30754 5.70061 8.46315 5.32494 8.74012 5.04797C9.0171 4.77099 9.39276 4.61539 9.78447 4.61539H14.2152C14.6069 4.61539 14.9826 4.77099 15.2596 5.04797C15.5366 5.32494 15.6922 5.70061 15.6922 6.09231V7.56923H18.646C18.8419 7.56923 19.0297 7.64704 19.1682 7.78552C19.3067 7.92401 19.3845 8.11184 19.3845 8.30769C19.3845 8.50355 19.3067 8.69138 19.1682 8.82987C19.0297 8.96835 18.8419 9.04616 18.646 9.04616H17.8566L17.2163 18.0126C17.1898 18.3852 17.0231 18.7339 16.7497 18.9885C16.4764 19.2431 16.1167 19.3846 15.7431 19.3846H8.25585C7.88229 19.3846 7.52261 19.2431 7.24924 18.9885C6.97588 18.7339 6.80914 18.3852 6.78262 18.0126L6.14385 9.04616H5.3537C5.15784 9.04616 4.97001 8.96835 4.83152 8.82987C4.69304 8.69138 4.61523 8.50355 4.61523 8.30769C4.61523 8.11184 4.69304 7.92401 4.83152 7.78552C4.97001 7.64704 5.15784 7.56923 5.3537 7.56923H8.30754V6.09231ZM9.78447 7.56923H14.2152V6.09231H9.78447V7.56923ZM7.62373 9.04616L8.25659 17.9077H15.7438L16.3767 9.04616H7.62373ZM10.5229 10.5231C10.7188 10.5231 10.9066 10.6009 11.0451 10.7394C11.1836 10.8779 11.2614 11.0657 11.2614 11.2615V15.6923C11.2614 15.8882 11.1836 16.076 11.0451 16.2145C10.9066 16.353 10.7188 16.4308 10.5229 16.4308C10.3271 16.4308 10.1392 16.353 10.0008 16.2145C9.86227 16.076 9.78447 15.8882 9.78447 15.6923V11.2615C9.78447 11.0657 9.86227 10.8779 10.0008 10.7394C10.1392 10.6009 10.3271 10.5231 10.5229 10.5231ZM13.4768 10.5231C13.6726 10.5231 13.8605 10.6009 13.9989 10.7394C14.1374 10.8779 14.2152 11.0657 14.2152 11.2615V15.6923C14.2152 15.8882 14.1374 16.076 13.9989 16.2145C13.8605 16.353 13.6726 16.4308 13.4768 16.4308C13.2809 16.4308 13.0931 16.353 12.9546 16.2145C12.8161 16.076 12.7383 15.8882 12.7383 15.6923V11.2615C12.7383 11.0657 12.8161 10.8779 12.9546 10.7394C13.0931 10.6009 13.2809 10.5231 13.4768 10.5231Z" fill="white"/>
</g>
</svg>
